# Blender v2.81 (sub 16) OBJ File: 'ComputerRoom.blend'
# www.blender.org
mtllib Tower.mtl
o Tower_Cube.002
v 0.248658 0.750621 -0.427142
v 0.248658 1.157894 -0.427142
v 0.458258 0.735183 -0.442804
v 0.458258 1.173333 -0.442804
v 0.248658 0.750621 -0.013966
v 0.248658 1.157894 -0.013966
v 0.458258 0.735183 0.001696
v 0.458258 1.173332 0.001696
v 0.248658 0.735183 -0.442804
v 0.248658 1.173333 -0.442804
v 0.248658 1.173333 0.001696
v 0.248658 0.735183 0.001696
v 0.248658 0.750621 -0.427142
v 0.248658 1.157894 -0.427142
v 0.248658 0.750621 -0.013966
v 0.248658 1.157894 -0.013966
v 0.444516 0.750621 -0.427142
v 0.444516 1.157894 -0.427142
v 0.444516 0.750621 -0.013966
v 0.444516 1.157894 -0.013966
vt 0.256882 0.000000
vt 0.506882 0.000000
vt 0.506882 0.250000
vt 0.256882 0.250000
vt 0.375000 0.250000
vt 0.547485 0.250000
vt 0.547485 0.500000
vt 0.375000 0.500000
vt 0.562500 0.062500
vt 0.562500 0.937500
vt 0.937500 0.937500
vt 0.937500 0.062500
vt 0.498074 0.991191
vt 0.265691 0.991191
vt 0.265691 0.991191
vt 0.498074 0.991191
vt 0.125000 0.500000
vt 0.375000 0.750000
vt 0.125000 0.750000
vt 0.260804 0.506152
vt 0.510804 0.506152
vt 0.510804 0.756152
vt 0.260804 0.756152
vt 0.506882 1.000000
vt 0.256882 1.000000
vt 0.547289 0.758809
vt 0.383809 0.758809
vt 0.556098 0.750000
vt 0.383809 0.991191
vt 0.375000 1.000000
vt 0.547289 0.991191
vt 0.556098 1.000000
vt 0.498074 0.758809
vt 0.498074 0.991191
vt 0.498074 0.758809
vt 0.498074 0.758809
vt 0.265691 0.758809
vt 0.265691 0.758809
vt 0.265691 0.758809
vt 0.265691 0.991191
vn 0.0000 0.0000 -1.0000
vn 1.0000 -0.0000 0.0000
vn 0.0000 -0.0000 1.0000
vn 0.0000 -1.0000 -0.0000
vn 0.0000 1.0000 0.0000
vn -1.0000 0.0000 0.0000
usemtl TowerMaterial
s off
f 9/1/1 10/2/1 4/3/1 3/4/1
f 3/5/2 4/6/2 8/7/2 7/8/2
f 7/9/3 8/10/3 11/11/3 12/12/3
f 2/13/3 1/14/3 13/15/3 14/16/3
f 3/17/4 7/8/4 12/18/4 9/19/4
f 8/20/5 4/21/5 10/22/5 11/23/5
f 1/14/6 2/13/6 10/24/6 9/25/6
f 6/26/6 5/27/6 12/18/6 11/28/6
f 5/27/6 1/29/6 9/30/6 12/18/6
f 2/31/6 6/26/6 11/28/6 10/32/6
f 16/33/4 14/16/4 18/34/4 20/35/4
f 6/36/3 2/13/3 14/16/3 16/33/3
f 5/37/3 6/36/3 16/33/3 15/38/3
f 1/14/3 5/37/3 15/38/3 13/15/3
f 19/39/6 20/35/6 18/34/6 17/40/6
f 15/38/1 16/33/1 20/35/1 19/39/1
f 13/15/5 15/38/5 19/39/5 17/40/5
f 14/16/3 13/15/3 17/40/3 18/34/3
